<?xml version="1.0" encoding="UTF-8" standalone="no"?>
<!-- Created with Inkscape (http://www.inkscape.org/) -->
<svg
   xmlns:dc="http://purl.org/dc/elements/1.1/"
   xmlns:cc="http://web.resource.org/cc/"
   xmlns:rdf="http://www.w3.org/1999/02/22-rdf-syntax-ns#"
   xmlns:svg="http://www.w3.org/2000/svg"
   xmlns="http://www.w3.org/2000/svg"
   xmlns:sodipodi="http://sodipodi.sourceforge.net/DTD/sodipodi-0.dtd"
   xmlns:inkscape="http://www.inkscape.org/namespaces/inkscape"
   id="svg2178"
   sodipodi:version="0.32"
   inkscape:version="0.45.1"
   width="264"
   height="300"
   version="1.0"
   sodipodi:docbase="C:\Documents and Settings\Victoria\Mis documentos\Mis imágenes"
   sodipodi:docname="Escudo_de_Valencia.svg"
   inkscape:output_extension="org.inkscape.output.svg.inkscape">
  <metadata
     id="metadata2183">
    <rdf:RDF>
      <cc:Work
         rdf:about="">
        <dc:format>image/svg+xml</dc:format>
        <dc:type
           rdf:resource="http://purl.org/dc/dcmitype/StillImage" />
      </cc:Work>
    </rdf:RDF>
  </metadata>
  <defs
     id="defs2181" />
  <sodipodi:namedview
     inkscape:window-height="744"
     inkscape:window-width="1280"
     inkscape:pageshadow="2"
     inkscape:pageopacity="0.0"
     guidetolerance="10.0"
     gridtolerance="10.0"
     objecttolerance="10.0"
     borderopacity="1.0"
     bordercolor="#666666"
     pagecolor="#ffffff"
     id="base"
     showguides="true"
     inkscape:guide-bbox="true"
     inkscape:zoom="1.2566667"
     inkscape:cx="250.39057"
     inkscape:cy="207.56958"
     inkscape:window-x="-4"
     inkscape:window-y="-4"
     inkscape:current-layer="svg2178" />
  <g
     id="g3339">
    <path
       sodipodi:nodetypes="cscscscsscscscscscsccscscscscscsscscccsc"
       id="path3318"
       d="M 127.71875,54 C 127.71875,54 127.70507,54.016331 126.3125,55.90625 C 124.91993,57.796171 124.4375,61.071287 124.4375,61.071286 C 124.4375,61.071286 124.52901,60.369695 122.9375,59.375 C 121.34599,58.380305 118.28125,59.96875 118.28125,59.96875 C 118.28125,59.96875 119.75837,60.967919 120.15625,63.15625 C 120.55413,65.344579 122.15625,67.343747 122.15625,67.34375 C 122.15625,67.34375 122.23326,67.730601 121.4375,66.4375 C 120.64175,65.144397 119.67117,64.966101 117.78125,64.46875 C 115.89133,63.971403 113.90625,62.96875 113.90625,62.96875 C 113.90625,62.96875 113.90053,62.965267 114,64.65625 C 114.09947,66.347231 115,69.218753 115,69.21875 C 115,69.21875 115.00042,69.218753 113.90625,69.21875 C 112.81209,69.21875 109.53125,71.812498 109.53125,71.8125 C 109.53125,71.8125 109.5194,71.826177 110.8125,73.21875 C 112.1056,74.611323 115.59375,75.500002 115.59375,75.5 C 115.59375,75.5 115.577,75.511027 114.78125,76.40625 C 113.98549,77.301475 113.6875,81.468752 113.6875,81.46875 C 113.6875,81.46875 115.18137,80.585374 116.375,80.1875 C 117.56863,79.789622 120.65725,80.080901 125.53125,76.5 L 126,74.9375 C 134.21284,81.26845 138.46574,80.312815 139.0625,80.1875 C 140.29384,79.928926 141.75,81.46875 141.75,81.46875 C 141.75001,81.468752 141.45201,77.301475 140.65625,76.40625 C 139.8605,75.511027 139.84375,75.5 139.84375,75.5 C 139.84374,75.500002 143.3319,74.611323 144.625,73.21875 C 145.9181,71.826177 145.90625,71.8125 145.90625,71.8125 C 145.90625,71.812498 142.62541,69.21875 141.53125,69.21875 C 140.43708,69.218753 140.4375,69.21875 140.4375,69.21875 C 140.4375,69.218753 141.33803,66.347231 141.4375,64.65625 C 141.53697,62.965267 141.53125,62.96875 141.53125,62.96875 C 141.53125,62.96875 139.54617,63.971403 137.65625,64.46875 C 135.76633,64.966101 134.79575,65.144397 134,66.4375 C 133.20425,67.730601 133.28125,67.34375 133.28125,67.34375 C 133.28126,67.343747 134.88337,65.344579 135.28125,63.15625 C 135.67913,60.967919 137.15625,59.96875 137.15625,59.96875 C 137.15625,59.96875 134.09151,58.380305 132.5,59.375 L 130.41769,60.764092 C 130.41769,60.764092 130.21875,61.071703 130.21875,59.28125 C 130.21875,57.490799 127.71875,54 127.71875,54 z "
       style="fill:#ffff00;fill-rule:evenodd;stroke:#000000;stroke-width:1px;stroke-linecap:butt;stroke-linejoin:miter;stroke-opacity:1;fill-opacity:1" />
    <path
       style="fill:#ffff00;fill-opacity:1;fill-rule:evenodd;stroke:#000000;stroke-width:1px;stroke-linecap:butt;stroke-linejoin:miter;stroke-opacity:1"
       d="M 196.19988,82.663134 L 206.67988,70.495083 C 206.67988,70.495083 201.40471,68.80703 199.78699,70.284076 C 198.16927,71.761123 198.30995,71.409445 198.30995,71.409445 C 198.30995,71.409445 197.04391,68.385016 193.24579,68.314681 C 189.44767,68.244345 190.64337,68.947701 190.64337,68.947701 C 190.64337,68.947701 192.47209,69.018036 192.54243,71.901794 C 192.61277,74.785552 192.19075,76.825283 192.19075,76.825283 C 192.19075,76.825283 191.6984,74.644881 189.30699,73.308505 C 186.91558,71.97213 185.50887,69.791728 185.50887,69.791728 C 185.50887,69.791728 182.62512,74.222868 182.90646,75.348236 C 183.1878,76.473605 183.1878,76.262599 183.1878,76.262599 C 183.1878,76.262599 180.44471,75.277901 178.33465,75.77025 C 176.22458,76.262599 176.22458,76.332934 176.22458,76.332934 C 176.22458,76.332934 175.59156,79.287028 177.77196,80.83441 C 179.95236,82.381792 180.51505,82.944476 180.51505,82.944476 C 180.51505,82.944476 178.47532,83.225819 176.99827,85.757899 C 175.52123,88.289979 175.73223,89.69669 175.73223,89.69669 L 190.57303,89.69669 L 196.19988,82.663134 z "
       id="path3301" />
    <path
       style="fill:#000000;fill-rule:evenodd;stroke:#000000;stroke-width:1px;stroke-linecap:butt;stroke-linejoin:miter;stroke-opacity:1"
       d="M 195.95485,82.803805 L 199.47163,77.317632 C 199.47163,77.317632 194.97016,79.287027 194.40747,79.990383 C 193.84479,80.693738 186.24855,80.975081 186.24855,80.975081 C 186.24855,80.975081 189.34331,84.351187 189.76532,85.476556 C 190.18734,86.601925 191.87539,86.179912 191.87539,86.179912 L 195.95485,82.803805 z "
       id="path3330"
       sodipodi:nodetypes="ccscscc" />
    <path
       sodipodi:open="true"
       sodipodi:end="6.2826132"
       sodipodi:start="0"
       d="M 94.952999,71.901794 A 4.6421466,4.6421466 0 1 1 94.952998,71.899139"
       sodipodi:ry="4.6421466"
       sodipodi:rx="4.6421466"
       sodipodi:cy="71.901794"
       sodipodi:cx="90.310852"
       id="path3303"
       style="fill:#ffffff;fill-opacity:1;stroke:#000000;stroke-width:1;stroke-miterlimit:4;stroke-dasharray:none;stroke-dashoffset:0;stroke-opacity:1"
       sodipodi:type="arc"
       transform="matrix(-1,0,0,1,285.10402,12.730736)" />
    <path
       id="path3229"
       d="M 68.928844,101.79441 L 74.837031,115.72085 L 120.55514,109.1093 L 171.75943,113.61078 L 179.49634,116.14286 L 185.96721,101.51306 L 156.56695,90.96273 L 120.2738,89.415348 L 83.277297,94.620179 L 68.928844,101.79441 z "
       style="fill:#ffff00;fill-rule:evenodd;stroke:#000000;stroke-width:1px;stroke-linecap:butt;stroke-linejoin:miter;stroke-opacity:1;fill-opacity:1" />
    <path
       sodipodi:type="arc"
       style="opacity:1;fill:#ffff00;fill-opacity:1;stroke:#000000;stroke-width:0.73537294;stroke-miterlimit:4;stroke-dasharray:none;stroke-dashoffset:0;stroke-opacity:1"
       id="path3220"
       sodipodi:cx="127.71883"
       sodipodi:cy="116.77719"
       sodipodi:rx="43.766579"
       sodipodi:ry="3.9787798"
       d="M 171.4854,116.77719 A 43.766579,3.9787798 0 1 1 171.4854,116.77491"
       sodipodi:start="0"
       sodipodi:end="6.2826132"
       sodipodi:open="true"
       transform="matrix(1.1231617,0,0,1.6464268,-15.531124,-73.697451)" />
    <path
       transform="translate(0.198939,1.7904509)"
       sodipodi:open="true"
       sodipodi:end="6.2826132"
       sodipodi:start="0"
       d="M 171.4854,116.77719 A 43.766579,3.9787798 0 1 1 171.4854,116.77491"
       sodipodi:ry="3.9787798"
       sodipodi:rx="43.766579"
       sodipodi:cy="116.77719"
       sodipodi:cx="127.71883"
       id="path3218"
       style="opacity:1;fill:#ff0000;fill-opacity:1;stroke:#000000;stroke-width:1;stroke-miterlimit:4;stroke-dasharray:none;stroke-dashoffset:0;stroke-opacity:1"
       sodipodi:type="arc" />
    <path
       sodipodi:nodetypes="csssssssc"
       id="path3222"
       d="M 79.197835,119.30796 C 74.69636,118.74528 73.008306,117.4089 73.289649,115.86152 C 73.570991,114.31413 87.494817,105.64827 126.32266,105.31118 C 156.00238,105.05229 180.19969,112.62608 180.90305,114.59548 C 181.6064,116.56487 182.30976,118.53427 179.91835,119.09695 C 177.52694,119.65964 177.38627,118.18259 173.58815,116.70554 C 166.90689,114.10727 142.07782,112.20407 127.02601,112.20407 C 111.9742,112.20407 87.075417,114.52514 82.644277,116.98689 C 78.510632,119.28336 79.197835,119.30796 79.197835,119.30796 z "
       style="fill:#ffff00;fill-rule:evenodd;stroke:#000000;stroke-width:1px;stroke-linecap:butt;stroke-linejoin:miter;stroke-opacity:1;fill-opacity:1" />
    <path
       id="path3224"
       d="M 120.96875 87 C 113.84137 87.051515 110.9056 87.395976 110.40625 87.875 C 110.39905 87.881909 110.41243 87.899286 110.40625 87.90625 C 83.884156 90.307773 69.257179 96.941275 67.375 98 C 65.124262 99.26604 65.280604 101.79646 67.25 103.0625 C 69.219395 104.32854 71.746218 101.78264 83.28125 97.5625 C 94.547168 93.440823 117.24913 91.646137 127.21875 91.5625 C 137.18837 91.646137 159.89033 93.440823 171.15625 97.5625 C 182.69128 101.78264 185.24935 104.32854 187.21875 103.0625 C 189.18813 101.79646 189.31323 99.26604 187.0625 98 C 185.18104 96.941684 170.56512 90.310137 144.0625 87.90625 C 144.05135 87.905239 144.0424 87.87601 144.03125 87.875 C 143.40706 87.276221 138.96183 86.89937 127.3125 87.03125 C 127.24965 87.030487 127.18795 87.031963 127.125 87.03125 C 124.79513 87.004874 122.7506 86.987121 120.96875 87 z "
       style="fill:#ffff00;fill-rule:evenodd;stroke:#000000;stroke-width:1px;stroke-linecap:butt;stroke-linejoin:miter;stroke-opacity:1;fill-opacity:1" />
    <path
       sodipodi:nodetypes="csscz"
       id="path3231"
       d="M 86.372062,103.62312 C 86.931926,101.61376 90.734909,97.570185 96.781724,96.448903 C 102.83125,95.327119 110.98951,95.182863 111.69286,98.136956 C 112.39622,101.09105 106.6287,104.7485 98.891791,106.01454 C 89.259355,107.33279 85.812199,105.63248 86.372062,103.62312 z "
       style="fill:#ffff00;fill-rule:evenodd;stroke:#000000;stroke-width:1px;stroke-linecap:butt;stroke-linejoin:miter;stroke-opacity:1;fill-opacity:1" />
    <path
       style="fill:#00ff59;fill-rule:evenodd;stroke:#000000;stroke-width:1;stroke-linecap:butt;stroke-linejoin:miter;stroke-opacity:1;stroke-miterlimit:4;stroke-dasharray:none;fill-opacity:1"
       d="M 92.300332,102.43873 C 92.59804,101.37025 94.620274,99.220083 97.835665,98.623841 C 101.0525,98.027333 105.39065,97.950625 105.76465,99.521463 C 106.13867,101.0923 103.07179,103.03715 98.957692,103.71036 C 93.835649,104.41134 92.002626,103.5072 92.300332,102.43873 z "
       id="path3233"
       sodipodi:nodetypes="csscz" />
    <path
       style="fill:#ffff00;fill-opacity:1;fill-rule:evenodd;stroke:#000000;stroke-width:1px;stroke-linecap:butt;stroke-linejoin:miter;stroke-opacity:1"
       d="M 168.6648,103.62312 C 168.10493,101.61376 164.30195,97.570185 158.25514,96.448903 C 152.20561,95.327119 144.04735,95.182863 143.344,98.136956 C 142.64064,101.09105 148.40816,104.7485 156.14507,106.01454 C 165.7775,107.33279 169.22466,105.63248 168.6648,103.62312 z "
       id="path3235"
       sodipodi:nodetypes="csscz" />
    <path
       sodipodi:nodetypes="csscz"
       id="path3237"
       d="M 162.73653,102.43873 C 162.43882,101.37025 160.41659,99.220083 157.20119,98.623841 C 153.98436,98.027333 149.64621,97.950625 149.27221,99.521463 C 148.89819,101.0923 151.96507,103.03715 156.07917,103.71036 C 161.20121,104.41134 163.03423,103.5072 162.73653,102.43873 z "
       style="fill:#00ff59;fill-opacity:1;fill-rule:evenodd;stroke:#000000;stroke-width:1;stroke-linecap:butt;stroke-linejoin:miter;stroke-miterlimit:4;stroke-dasharray:none;stroke-opacity:1" />
    <path
       sodipodi:nodetypes="ccccccccc"
       id="path3239"
       d="M 119.99246,96.589574 L 127.5887,92.932125 L 134.76292,96.870916 C 136.70822,95.207781 139.62052,96.229933 139.40507,99.684339 C 138.42721,102.48853 136.14108,102.3698 133.77823,101.51306 L 127.72937,104.18581 L 121.11783,100.80971 C 119.01149,102.65063 115.50958,102.55458 114.78763,99.543668 C 114.64262,96.093892 117.52956,95.111837 119.99246,96.589574 z "
       style="fill:#ffff00;fill-rule:evenodd;stroke:#000000;stroke-width:1px;stroke-linecap:butt;stroke-linejoin:miter;stroke-opacity:1;fill-opacity:1" />
    <path
       id="path3241"
       d="M 122.10252,98.418299 L 127.72937,95.182863 L 133.63755,98.699641 L 127.72937,102.21642 L 122.10252,98.418299 z "
       style="fill:#ff0000;fill-rule:evenodd;stroke:#000000;stroke-width:1px;stroke-linecap:butt;stroke-linejoin:miter;stroke-opacity:1;fill-opacity:1" />
    <g
       id="g3252">
      <path
         style="fill:#ffff00;fill-opacity:1;fill-rule:evenodd;stroke:#000000;stroke-width:1px;stroke-linecap:butt;stroke-linejoin:miter;stroke-opacity:1"
         d="M 70.219023,104.01798 L 69.190828,105.11727 L 73.080634,114.26687 L 74.537918,114.41463 L 79.153807,109.68852 C 81.665758,109.60389 83.834051,108.84584 83.697513,105.87919 C 82.611291,102.59294 79.529442,102.72533 78.343251,104.99319 L 70.219023,104.01798 z "
         id="path3243" />
      <path
         style="fill:#ff0000;fill-opacity:1;fill-rule:evenodd;stroke:#000000;stroke-width:1px;stroke-linecap:butt;stroke-linejoin:miter;stroke-opacity:1"
         d="M 69.778448,106.91081 L 77.785671,107.33123 L 72.455571,112.26337 L 64.995506,112.15341 L 69.778448,106.91081 z "
         id="path3250" />
    </g>
    <g
       transform="matrix(-1,0,0,1,255.32784,0)"
       id="g3256">
      <path
         id="path3258"
         d="M 70.219023,104.01798 L 69.190828,105.11727 L 73.080634,114.26687 L 74.537918,114.41463 L 79.153807,109.68852 C 81.665758,109.60389 83.834051,108.84584 83.697513,105.87919 C 82.611291,102.59294 79.529442,102.72533 78.343251,104.99319 L 70.219023,104.01798 z "
         style="fill:#ffff00;fill-opacity:1;fill-rule:evenodd;stroke:#000000;stroke-width:1px;stroke-linecap:butt;stroke-linejoin:miter;stroke-opacity:1" />
      <path
         id="path3260"
         d="M 69.778448,106.91081 L 77.785671,107.33123 L 72.455571,112.26337 L 64.995506,112.15341 L 69.778448,106.91081 z "
         style="fill:#ff0000;fill-opacity:1;fill-rule:evenodd;stroke:#000000;stroke-width:1px;stroke-linecap:butt;stroke-linejoin:miter;stroke-opacity:1" />
    </g>
    <g
       id="g3305">
      <path
         sodipodi:open="true"
         sodipodi:end="6.2826132"
         sodipodi:start="0"
         d="M 94.952999,71.901794 A 4.6421466,4.6421466 0 1 1 94.952998,71.899139"
         sodipodi:ry="4.6421466"
         sodipodi:rx="4.6421466"
         sodipodi:cy="71.901794"
         sodipodi:cx="90.310852"
         id="path3289"
         style="opacity:1;fill:#ffffff;fill-opacity:1;stroke:#000000;stroke-width:1;stroke-miterlimit:4;stroke-dasharray:none;stroke-dashoffset:0;stroke-opacity:1"
         sodipodi:type="arc"
         transform="translate(-2.568283,8.7919444)" />
      <path
         sodipodi:type="arc"
         style="opacity:1;fill:#ffffff;fill-opacity:1;stroke:#000000;stroke-width:1;stroke-miterlimit:4;stroke-dasharray:none;stroke-dashoffset:0;stroke-opacity:1"
         id="path3287"
         sodipodi:cx="90.310852"
         sodipodi:cy="71.901794"
         sodipodi:rx="4.6421466"
         sodipodi:ry="4.6421466"
         d="M 94.952999,71.901794 A 4.6421466,4.6421466 0 1 1 94.952998,71.899139"
         sodipodi:start="0"
         sodipodi:end="6.2826132"
         sodipodi:open="true" />
      <path
         transform="translate(6.4829387,6.96322)"
         sodipodi:type="arc"
         style="opacity:1;fill:#ffffff;fill-opacity:1;stroke:#000000;stroke-width:1;stroke-miterlimit:4;stroke-dasharray:none;stroke-dashoffset:0;stroke-opacity:1"
         id="path3291"
         sodipodi:cx="90.310852"
         sodipodi:cy="71.901794"
         sodipodi:rx="4.6421466"
         sodipodi:ry="4.6421466"
         d="M 94.952999,71.901794 A 4.6421466,4.6421466 0 1 1 94.952998,71.899139"
         sodipodi:start="0"
         sodipodi:end="6.2826132"
         sodipodi:open="true" />
    </g>
    <path
       id="path3285"
       d="M 57.886162,82.663134 L 47.406164,70.495083 C 47.406164,70.495083 52.681331,68.80703 54.299049,70.284076 C 55.916766,71.761123 55.776095,71.409445 55.776095,71.409445 C 55.776095,71.409445 57.042135,68.385016 60.840255,68.314681 C 64.638375,68.244345 63.442671,68.947701 63.442671,68.947701 C 63.442671,68.947701 61.613946,69.018036 61.543611,71.901794 C 61.473275,74.785552 61.895289,76.825283 61.895289,76.825283 C 61.895289,76.825283 62.387638,74.644881 64.779046,73.308505 C 67.170455,71.97213 68.577166,69.791728 68.577166,69.791728 C 68.577166,69.791728 71.460924,74.222868 71.179582,75.348236 C 70.89824,76.473605 70.89824,76.262599 70.89824,76.262599 C 70.89824,76.262599 73.641326,75.277901 75.751393,75.77025 C 77.86146,76.262599 77.86146,76.332934 77.86146,76.332934 C 77.86146,76.332934 78.49448,79.287028 76.314077,80.83441 C 74.133675,82.381792 73.570991,82.944476 73.570991,82.944476 C 73.570991,82.944476 75.610722,83.225819 77.087769,85.757899 C 78.564815,88.289979 78.353809,89.69669 78.353809,89.69669 L 63.513006,89.69669 L 57.886162,82.663134 z "
       style="fill:#ffff00;fill-opacity:1;fill-rule:evenodd;stroke:#000000;stroke-width:1px;stroke-linecap:butt;stroke-linejoin:miter;stroke-opacity:1" />
    <path
       sodipodi:nodetypes="ccscscc"
       id="path3325"
       d="M 57.112471,82.803805 L 53.595693,77.317632 C 53.595693,77.317632 58.097169,79.287027 58.659853,79.990383 C 59.222537,80.693738 66.818777,80.975081 66.818777,80.975081 C 66.818777,80.975081 63.724013,84.351187 63.302,85.476556 C 62.879987,86.601925 61.191933,86.179912 61.191933,86.179912 L 57.112471,82.803805 z "
       style="fill:#000000;fill-rule:evenodd;stroke:#000000;stroke-width:1px;stroke-linecap:butt;stroke-linejoin:miter;stroke-opacity:1" />
    <path
       transform="translate(-31.01798,12.730736)"
       sodipodi:type="arc"
       style="fill:#ffffff;fill-opacity:1;stroke:#000000;stroke-width:1;stroke-miterlimit:4;stroke-dasharray:none;stroke-dashoffset:0;stroke-opacity:1"
       id="path3293"
       sodipodi:cx="90.310852"
       sodipodi:cy="71.901794"
       sodipodi:rx="4.6421466"
       sodipodi:ry="4.6421466"
       d="M 94.952999,71.901794 A 4.6421466,4.6421466 0 1 1 94.952998,71.899139"
       sodipodi:start="0"
       sodipodi:end="6.2826132"
       sodipodi:open="true" />
    <path
       sodipodi:nodetypes="csscsccccscscc"
       id="path3334"
       d="M 127.52073,60.951011 C 127.47457,61.340054 127.62193,62.520645 126.55198,64.138511 C 124.97046,66.52992 125.62162,67.378985 121.83058,70.326011 C 118.80939,72.674578 119.23948,72.857257 119.23948,72.857261 C 119.23948,72.857261 119.66048,73.138325 122.33323,73.701011 C 125.00598,74.263695 124.86449,75.951007 124.86448,75.951011 L 126.52073,74.232261 L 126.39573,74.919761 L 129.11448,74.701011 C 129.11447,74.701009 129.91048,74.263695 132.58323,73.701011 C 135.25598,73.138325 135.67698,72.857261 135.67698,72.857261 C 135.67698,72.857257 135.71659,73.30574 132.98641,70.624419 C 130.28953,67.975802 129.24971,66.430451 128.36448,64.138511 L 127.52073,60.951011 z "
       style="fill:#000000;fill-rule:evenodd;stroke:#000000;stroke-width:1px;stroke-linecap:butt;stroke-linejoin:miter;stroke-opacity:1" />
    <path
       sodipodi:open="true"
       sodipodi:end="6.2826132"
       sodipodi:start="0"
       d="M 94.952999,71.901794 A 4.6421466,4.6421466 0 1 1 94.952998,71.899139"
       sodipodi:ry="4.6421466"
       sodipodi:rx="4.6421466"
       sodipodi:cy="71.901794"
       sodipodi:cx="90.310852"
       id="path3323"
       style="fill:#ffffff;fill-opacity:1;stroke:#000000;stroke-width:1;stroke-miterlimit:4;stroke-dasharray:none;stroke-dashoffset:0;stroke-opacity:1"
       sodipodi:type="arc"
       transform="translate(37.083903,-0.4923484)" />
    <path
       sodipodi:nodetypes="csscssccsscssccsscssccsscsscc"
       id="path3280"
       d="M 126.84375,76 C 126.25662,76.497557 125.23767,77.35727 123.375,78.875 C 119.57688,81.969765 109.15735,84.781158 105.78125,85.0625 C 102.40514,85.343842 93.53125,83.093746 93.53125,83.09375 C 93.53125,83.09375 84.688976,88.280885 80.1875,89.40625 C 75.686024,90.531618 68.235255,90.390951 65.5625,89.40625 C 62.889749,88.421552 62.188052,87.718383 60.5,88.84375 L 60.78125,89.5625 C 60.78125,89.5625 60.781158,89.984143 61.0625,90.6875 C 61.343842,91.390855 72.309826,95.172563 80.46875,93.0625 C 88.627675,90.952434 94.531253,86.749997 94.53125,86.75 C 94.53125,86.75 97.638828,88.281343 103.125,88 C 108.61118,87.718658 110.29388,88.157449 119.4375,84.5 C 126.97659,81.484363 127.23079,79.442377 127.09375,78.8125 L 127.65625,78.8125 C 127.51921,79.442377 127.77341,81.484363 135.3125,84.5 C 144.45612,88.157449 146.17007,87.718658 151.65625,88 C 157.14242,88.281343 160.21875,86.75 160.21875,86.75 C 160.21874,86.749997 166.12233,90.952434 174.28125,93.0625 C 182.44018,95.172563 193.4374,91.390855 193.71875,90.6875 C 194.00009,89.984143 194,89.5625 194,89.5625 L 194.28125,88.84375 C 192.5932,87.718383 191.86025,88.421552 189.1875,89.40625 C 186.51475,90.390951 179.06398,90.531618 174.5625,89.40625 C 170.06102,88.280885 161.21875,83.09375 161.21875,83.09375 C 161.21875,83.093746 152.34486,85.343842 148.96875,85.0625 C 145.59265,84.781158 135.17312,81.969765 131.375,78.875 C 129.51233,77.35727 128.49338,76.497557 127.90625,76 L 126.84375,76 z "
       style="fill:#ffff00;fill-rule:evenodd;stroke:#000000;stroke-width:1px;stroke-linecap:butt;stroke-linejoin:miter;stroke-opacity:1;fill-opacity:1" />
    <g
       transform="matrix(-1,0,0,1,254.76182,0)"
       id="g3310">
      <path
         transform="translate(-2.568283,8.7919444)"
         sodipodi:type="arc"
         style="opacity:1;fill:#ffffff;fill-opacity:1;stroke:#000000;stroke-width:1;stroke-miterlimit:4;stroke-dasharray:none;stroke-dashoffset:0;stroke-opacity:1"
         id="path3312"
         sodipodi:cx="90.310852"
         sodipodi:cy="71.901794"
         sodipodi:rx="4.6421466"
         sodipodi:ry="4.6421466"
         d="M 94.952999,71.901794 A 4.6421466,4.6421466 0 1 1 94.952998,71.899139"
         sodipodi:start="0"
         sodipodi:end="6.2826132"
         sodipodi:open="true" />
      <path
         sodipodi:open="true"
         sodipodi:end="6.2826132"
         sodipodi:start="0"
         d="M 94.952999,71.901794 A 4.6421466,4.6421466 0 1 1 94.952998,71.899139"
         sodipodi:ry="4.6421466"
         sodipodi:rx="4.6421466"
         sodipodi:cy="71.901794"
         sodipodi:cx="90.310852"
         id="path3314"
         style="opacity:1;fill:#ffffff;fill-opacity:1;stroke:#000000;stroke-width:1;stroke-miterlimit:4;stroke-dasharray:none;stroke-dashoffset:0;stroke-opacity:1"
         sodipodi:type="arc" />
      <path
         sodipodi:open="true"
         sodipodi:end="6.2826132"
         sodipodi:start="0"
         d="M 94.952999,71.901794 A 4.6421466,4.6421466 0 1 1 94.952998,71.899139"
         sodipodi:ry="4.6421466"
         sodipodi:rx="4.6421466"
         sodipodi:cy="71.901794"
         sodipodi:cx="90.310852"
         id="path3316"
         style="opacity:1;fill:#ffffff;fill-opacity:1;stroke:#000000;stroke-width:1;stroke-miterlimit:4;stroke-dasharray:none;stroke-dashoffset:0;stroke-opacity:1"
         sodipodi:type="arc"
         transform="translate(6.4829387,6.96322)" />
    </g>
  </g>
  <g
     id="g3376"
     transform="matrix(0.4814011,0,0,0.4814011,154.39286,98.567322)">
    <path
       style="fill:#ffff00;fill-opacity:1;fill-rule:evenodd;stroke:#000000;stroke-width:1px;stroke-linecap:butt;stroke-linejoin:miter;stroke-opacity:1"
       d="M 127.71875,54 C 127.71875,54 127.70507,54.016331 126.3125,55.90625 C 124.91993,57.796171 124.4375,61.071287 124.4375,61.071286 C 124.4375,61.071286 124.52901,60.369695 122.9375,59.375 C 121.34599,58.380305 118.28125,59.96875 118.28125,59.96875 C 118.28125,59.96875 119.75837,60.967919 120.15625,63.15625 C 120.55413,65.344579 122.15625,67.343747 122.15625,67.34375 C 122.15625,67.34375 122.23326,67.730601 121.4375,66.4375 C 120.64175,65.144397 119.67117,64.966101 117.78125,64.46875 C 115.89133,63.971403 113.90625,62.96875 113.90625,62.96875 C 113.90625,62.96875 113.90053,62.965267 114,64.65625 C 114.09947,66.347231 115,69.218753 115,69.21875 C 115,69.21875 115.00042,69.218753 113.90625,69.21875 C 112.81209,69.21875 109.53125,71.812498 109.53125,71.8125 C 109.53125,71.8125 109.5194,71.826177 110.8125,73.21875 C 112.1056,74.611323 115.59375,75.500002 115.59375,75.5 C 115.59375,75.5 115.577,75.511027 114.78125,76.40625 C 113.98549,77.301475 113.6875,81.468752 113.6875,81.46875 C 113.6875,81.46875 115.18137,80.585374 116.375,80.1875 C 117.56863,79.789622 120.65725,80.080901 125.53125,76.5 L 126,74.9375 C 134.21284,81.26845 138.46574,80.312815 139.0625,80.1875 C 140.29384,79.928926 141.75,81.46875 141.75,81.46875 C 141.75001,81.468752 141.45201,77.301475 140.65625,76.40625 C 139.8605,75.511027 139.84375,75.5 139.84375,75.5 C 139.84374,75.500002 143.3319,74.611323 144.625,73.21875 C 145.9181,71.826177 145.90625,71.8125 145.90625,71.8125 C 145.90625,71.812498 142.62541,69.21875 141.53125,69.21875 C 140.43708,69.218753 140.4375,69.21875 140.4375,69.21875 C 140.4375,69.218753 141.33803,66.347231 141.4375,64.65625 C 141.53697,62.965267 141.53125,62.96875 141.53125,62.96875 C 141.53125,62.96875 139.54617,63.971403 137.65625,64.46875 C 135.76633,64.966101 134.79575,65.144397 134,66.4375 C 133.20425,67.730601 133.28125,67.34375 133.28125,67.34375 C 133.28126,67.343747 134.88337,65.344579 135.28125,63.15625 C 135.67913,60.967919 137.15625,59.96875 137.15625,59.96875 C 137.15625,59.96875 134.09151,58.380305 132.5,59.375 L 130.41769,60.764092 C 130.41769,60.764092 130.21875,61.071703 130.21875,59.28125 C 130.21875,57.490799 127.71875,54 127.71875,54 z "
       id="path3378"
       sodipodi:nodetypes="cscscscsscscscscscsccscscscscscsscscccsc" />
    <path
       id="path3380"
       d="M 196.19988,82.663134 L 206.67988,70.495083 C 206.67988,70.495083 201.40471,68.80703 199.78699,70.284076 C 198.16927,71.761123 198.30995,71.409445 198.30995,71.409445 C 198.30995,71.409445 197.04391,68.385016 193.24579,68.314681 C 189.44767,68.244345 190.64337,68.947701 190.64337,68.947701 C 190.64337,68.947701 192.47209,69.018036 192.54243,71.901794 C 192.61277,74.785552 192.19075,76.825283 192.19075,76.825283 C 192.19075,76.825283 191.6984,74.644881 189.30699,73.308505 C 186.91558,71.97213 185.50887,69.791728 185.50887,69.791728 C 185.50887,69.791728 182.62512,74.222868 182.90646,75.348236 C 183.1878,76.473605 183.1878,76.262599 183.1878,76.262599 C 183.1878,76.262599 180.44471,75.277901 178.33465,75.77025 C 176.22458,76.262599 176.22458,76.332934 176.22458,76.332934 C 176.22458,76.332934 175.59156,79.287028 177.77196,80.83441 C 179.95236,82.381792 180.51505,82.944476 180.51505,82.944476 C 180.51505,82.944476 178.47532,83.225819 176.99827,85.757899 C 175.52123,88.289979 175.73223,89.69669 175.73223,89.69669 L 190.57303,89.69669 L 196.19988,82.663134 z "
       style="fill:#ffff00;fill-opacity:1;fill-rule:evenodd;stroke:#000000;stroke-width:1px;stroke-linecap:butt;stroke-linejoin:miter;stroke-opacity:1" />
    <path
       sodipodi:nodetypes="ccscscc"
       id="path3382"
       d="M 195.95485,82.803805 L 199.47163,77.317632 C 199.47163,77.317632 194.97016,79.287027 194.40747,79.990383 C 193.84479,80.693738 186.24855,80.975081 186.24855,80.975081 C 186.24855,80.975081 189.34331,84.351187 189.76532,85.476556 C 190.18734,86.601925 191.87539,86.179912 191.87539,86.179912 L 195.95485,82.803805 z "
       style="fill:#000000;fill-rule:evenodd;stroke:#000000;stroke-width:1px;stroke-linecap:butt;stroke-linejoin:miter;stroke-opacity:1" />
    <path
       transform="matrix(-1,0,0,1,285.10402,12.730736)"
       sodipodi:type="arc"
       style="fill:#ffffff;fill-opacity:1;stroke:#000000;stroke-width:1;stroke-miterlimit:4;stroke-dasharray:none;stroke-dashoffset:0;stroke-opacity:1"
       id="path3384"
       sodipodi:cx="90.310852"
       sodipodi:cy="71.901794"
       sodipodi:rx="4.6421466"
       sodipodi:ry="4.6421466"
       d="M 94.952999,71.901794 A 4.6421466,4.6421466 0 1 1 94.952998,71.899139"
       sodipodi:start="0"
       sodipodi:end="6.2826132"
       sodipodi:open="true" />
    <path
       style="fill:#ffff00;fill-opacity:1;fill-rule:evenodd;stroke:#000000;stroke-width:1px;stroke-linecap:butt;stroke-linejoin:miter;stroke-opacity:1"
       d="M 68.928844,101.79441 L 74.837031,115.72085 L 120.55514,109.1093 L 171.75943,113.61078 L 179.49634,116.14286 L 185.96721,101.51306 L 156.56695,90.96273 L 120.2738,89.415348 L 83.277297,94.620179 L 68.928844,101.79441 z "
       id="path3386" />
    <path
       transform="matrix(1.1231617,0,0,1.6464268,-15.531124,-73.697451)"
       sodipodi:open="true"
       sodipodi:end="6.2826132"
       sodipodi:start="0"
       d="M 171.4854,116.77719 A 43.766579,3.9787798 0 1 1 171.4854,116.77491"
       sodipodi:ry="3.9787798"
       sodipodi:rx="43.766579"
       sodipodi:cy="116.77719"
       sodipodi:cx="127.71883"
       id="path3388"
       style="opacity:1;fill:#ffff00;fill-opacity:1;stroke:#000000;stroke-width:0.73537296;stroke-miterlimit:4;stroke-dasharray:none;stroke-dashoffset:0;stroke-opacity:1"
       sodipodi:type="arc" />
    <path
       sodipodi:type="arc"
       style="opacity:1;fill:#ff0000;fill-opacity:1;stroke:#000000;stroke-width:1;stroke-miterlimit:4;stroke-dasharray:none;stroke-dashoffset:0;stroke-opacity:1"
       id="path3390"
       sodipodi:cx="127.71883"
       sodipodi:cy="116.77719"
       sodipodi:rx="43.766579"
       sodipodi:ry="3.9787798"
       d="M 171.4854,116.77719 A 43.766579,3.9787798 0 1 1 171.4854,116.77491"
       sodipodi:start="0"
       sodipodi:end="6.2826132"
       sodipodi:open="true"
       transform="translate(0.198939,1.7904509)" />
    <path
       style="fill:#ffff00;fill-opacity:1;fill-rule:evenodd;stroke:#000000;stroke-width:1px;stroke-linecap:butt;stroke-linejoin:miter;stroke-opacity:1"
       d="M 79.197835,119.30796 C 74.69636,118.74528 73.008306,117.4089 73.289649,115.86152 C 73.570991,114.31413 87.494817,105.64827 126.32266,105.31118 C 156.00238,105.05229 180.19969,112.62608 180.90305,114.59548 C 181.6064,116.56487 182.30976,118.53427 179.91835,119.09695 C 177.52694,119.65964 177.38627,118.18259 173.58815,116.70554 C 166.90689,114.10727 142.07782,112.20407 127.02601,112.20407 C 111.9742,112.20407 87.075417,114.52514 82.644277,116.98689 C 78.510632,119.28336 79.197835,119.30796 79.197835,119.30796 z "
       id="path3392"
       sodipodi:nodetypes="csssssssc" />
    <path
       style="fill:#ffff00;fill-opacity:1;fill-rule:evenodd;stroke:#000000;stroke-width:1px;stroke-linecap:butt;stroke-linejoin:miter;stroke-opacity:1"
       d="M 120.96875,87 C 113.84137,87.051515 110.9056,87.395976 110.40625,87.875 C 110.39905,87.881909 110.41243,87.899286 110.40625,87.90625 C 83.884156,90.307773 69.257179,96.941275 67.375,98 C 65.124262,99.26604 65.280604,101.79646 67.25,103.0625 C 69.219395,104.32854 71.746218,101.78264 83.28125,97.5625 C 94.547168,93.440823 117.24913,91.646137 127.21875,91.5625 C 137.18837,91.646137 159.89033,93.440823 171.15625,97.5625 C 182.69128,101.78264 185.24935,104.32854 187.21875,103.0625 C 189.18813,101.79646 189.31323,99.26604 187.0625,98 C 185.18104,96.941684 170.56512,90.310137 144.0625,87.90625 C 144.05135,87.905239 144.0424,87.87601 144.03125,87.875 C 143.40706,87.276221 138.96183,86.89937 127.3125,87.03125 C 127.24965,87.030487 127.18795,87.031963 127.125,87.03125 C 124.79513,87.004874 122.7506,86.987121 120.96875,87 z "
       id="path3394" />
    <path
       style="fill:#ffff00;fill-opacity:1;fill-rule:evenodd;stroke:#000000;stroke-width:1px;stroke-linecap:butt;stroke-linejoin:miter;stroke-opacity:1"
       d="M 86.372062,103.62312 C 86.931926,101.61376 90.734909,97.570185 96.781724,96.448903 C 102.83125,95.327119 110.98951,95.182863 111.69286,98.136956 C 112.39622,101.09105 106.6287,104.7485 98.891791,106.01454 C 89.259355,107.33279 85.812199,105.63248 86.372062,103.62312 z "
       id="path3396"
       sodipodi:nodetypes="csscz" />
    <path
       sodipodi:nodetypes="csscz"
       id="path3398"
       d="M 92.300332,102.43873 C 92.59804,101.37025 94.620274,99.220083 97.835665,98.623841 C 101.0525,98.027333 105.39065,97.950625 105.76465,99.521463 C 106.13867,101.0923 103.07179,103.03715 98.957692,103.71036 C 93.835649,104.41134 92.002626,103.5072 92.300332,102.43873 z "
       style="fill:#00ff59;fill-opacity:1;fill-rule:evenodd;stroke:#000000;stroke-width:1;stroke-linecap:butt;stroke-linejoin:miter;stroke-miterlimit:4;stroke-dasharray:none;stroke-opacity:1" />
    <path
       sodipodi:nodetypes="csscz"
       id="path3400"
       d="M 168.6648,103.62312 C 168.10493,101.61376 164.30195,97.570185 158.25514,96.448903 C 152.20561,95.327119 144.04735,95.182863 143.344,98.136956 C 142.64064,101.09105 148.40816,104.7485 156.14507,106.01454 C 165.7775,107.33279 169.22466,105.63248 168.6648,103.62312 z "
       style="fill:#ffff00;fill-opacity:1;fill-rule:evenodd;stroke:#000000;stroke-width:1px;stroke-linecap:butt;stroke-linejoin:miter;stroke-opacity:1" />
    <path
       style="fill:#00ff59;fill-opacity:1;fill-rule:evenodd;stroke:#000000;stroke-width:1;stroke-linecap:butt;stroke-linejoin:miter;stroke-miterlimit:4;stroke-dasharray:none;stroke-opacity:1"
       d="M 162.73653,102.43873 C 162.43882,101.37025 160.41659,99.220083 157.20119,98.623841 C 153.98436,98.027333 149.64621,97.950625 149.27221,99.521463 C 148.89819,101.0923 151.96507,103.03715 156.07917,103.71036 C 161.20121,104.41134 163.03423,103.5072 162.73653,102.43873 z "
       id="path3402"
       sodipodi:nodetypes="csscz" />
    <path
       style="fill:#ffff00;fill-opacity:1;fill-rule:evenodd;stroke:#000000;stroke-width:1px;stroke-linecap:butt;stroke-linejoin:miter;stroke-opacity:1"
       d="M 119.99246,96.589574 L 127.5887,92.932125 L 134.76292,96.870916 C 136.70822,95.207781 139.62052,96.229933 139.40507,99.684339 C 138.42721,102.48853 136.14108,102.3698 133.77823,101.51306 L 127.72937,104.18581 L 121.11783,100.80971 C 119.01149,102.65063 115.50958,102.55458 114.78763,99.543668 C 114.64262,96.093892 117.52956,95.111837 119.99246,96.589574 z "
       id="path3404"
       sodipodi:nodetypes="ccccccccc" />
    <path
       style="fill:#ff0000;fill-opacity:1;fill-rule:evenodd;stroke:#000000;stroke-width:1px;stroke-linecap:butt;stroke-linejoin:miter;stroke-opacity:1"
       d="M 122.10252,98.418299 L 127.72937,95.182863 L 133.63755,98.699641 L 127.72937,102.21642 L 122.10252,98.418299 z "
       id="path3406" />
    <g
       id="g3408">
      <path
         id="path3410"
         d="M 70.219023,104.01798 L 69.190828,105.11727 L 73.080634,114.26687 L 74.537918,114.41463 L 79.153807,109.68852 C 81.665758,109.60389 83.834051,108.84584 83.697513,105.87919 C 82.611291,102.59294 79.529442,102.72533 78.343251,104.99319 L 70.219023,104.01798 z "
         style="fill:#ffff00;fill-opacity:1;fill-rule:evenodd;stroke:#000000;stroke-width:1px;stroke-linecap:butt;stroke-linejoin:miter;stroke-opacity:1" />
      <path
         id="path3412"
         d="M 69.778448,106.91081 L 77.785671,107.33123 L 72.455571,112.26337 L 64.995506,112.15341 L 69.778448,106.91081 z "
         style="fill:#ff0000;fill-opacity:1;fill-rule:evenodd;stroke:#000000;stroke-width:1px;stroke-linecap:butt;stroke-linejoin:miter;stroke-opacity:1" />
    </g>
    <g
       id="g3414"
       transform="matrix(-1,0,0,1,255.32784,0)">
      <path
         style="fill:#ffff00;fill-opacity:1;fill-rule:evenodd;stroke:#000000;stroke-width:1px;stroke-linecap:butt;stroke-linejoin:miter;stroke-opacity:1"
         d="M 70.219023,104.01798 L 69.190828,105.11727 L 73.080634,114.26687 L 74.537918,114.41463 L 79.153807,109.68852 C 81.665758,109.60389 83.834051,108.84584 83.697513,105.87919 C 82.611291,102.59294 79.529442,102.72533 78.343251,104.99319 L 70.219023,104.01798 z "
         id="path3416" />
      <path
         style="fill:#ff0000;fill-opacity:1;fill-rule:evenodd;stroke:#000000;stroke-width:1px;stroke-linecap:butt;stroke-linejoin:miter;stroke-opacity:1"
         d="M 69.778448,106.91081 L 77.785671,107.33123 L 72.455571,112.26337 L 64.995506,112.15341 L 69.778448,106.91081 z "
         id="path3418" />
    </g>
    <g
       id="g3420">
      <path
         transform="translate(-2.568283,8.7919444)"
         sodipodi:type="arc"
         style="opacity:1;fill:#ffffff;fill-opacity:1;stroke:#000000;stroke-width:1;stroke-miterlimit:4;stroke-dasharray:none;stroke-dashoffset:0;stroke-opacity:1"
         id="path3422"
         sodipodi:cx="90.310852"
         sodipodi:cy="71.901794"
         sodipodi:rx="4.6421466"
         sodipodi:ry="4.6421466"
         d="M 94.952999,71.901794 A 4.6421466,4.6421466 0 1 1 94.952998,71.899139"
         sodipodi:start="0"
         sodipodi:end="6.2826132"
         sodipodi:open="true" />
      <path
         sodipodi:open="true"
         sodipodi:end="6.2826132"
         sodipodi:start="0"
         d="M 94.952999,71.901794 A 4.6421466,4.6421466 0 1 1 94.952998,71.899139"
         sodipodi:ry="4.6421466"
         sodipodi:rx="4.6421466"
         sodipodi:cy="71.901794"
         sodipodi:cx="90.310852"
         id="path3424"
         style="opacity:1;fill:#ffffff;fill-opacity:1;stroke:#000000;stroke-width:1;stroke-miterlimit:4;stroke-dasharray:none;stroke-dashoffset:0;stroke-opacity:1"
         sodipodi:type="arc" />
      <path
         sodipodi:open="true"
         sodipodi:end="6.2826132"
         sodipodi:start="0"
         d="M 94.952999,71.901794 A 4.6421466,4.6421466 0 1 1 94.952998,71.899139"
         sodipodi:ry="4.6421466"
         sodipodi:rx="4.6421466"
         sodipodi:cy="71.901794"
         sodipodi:cx="90.310852"
         id="path3426"
         style="opacity:1;fill:#ffffff;fill-opacity:1;stroke:#000000;stroke-width:1;stroke-miterlimit:4;stroke-dasharray:none;stroke-dashoffset:0;stroke-opacity:1"
         sodipodi:type="arc"
         transform="translate(6.4829387,6.96322)" />
    </g>
    <path
       style="fill:#ffff00;fill-opacity:1;fill-rule:evenodd;stroke:#000000;stroke-width:1px;stroke-linecap:butt;stroke-linejoin:miter;stroke-opacity:1"
       d="M 57.886162,82.663134 L 47.406164,70.495083 C 47.406164,70.495083 52.681331,68.80703 54.299049,70.284076 C 55.916766,71.761123 55.776095,71.409445 55.776095,71.409445 C 55.776095,71.409445 57.042135,68.385016 60.840255,68.314681 C 64.638375,68.244345 63.442671,68.947701 63.442671,68.947701 C 63.442671,68.947701 61.613946,69.018036 61.543611,71.901794 C 61.473275,74.785552 61.895289,76.825283 61.895289,76.825283 C 61.895289,76.825283 62.387638,74.644881 64.779046,73.308505 C 67.170455,71.97213 68.577166,69.791728 68.577166,69.791728 C 68.577166,69.791728 71.460924,74.222868 71.179582,75.348236 C 70.89824,76.473605 70.89824,76.262599 70.89824,76.262599 C 70.89824,76.262599 73.641326,75.277901 75.751393,75.77025 C 77.86146,76.262599 77.86146,76.332934 77.86146,76.332934 C 77.86146,76.332934 78.49448,79.287028 76.314077,80.83441 C 74.133675,82.381792 73.570991,82.944476 73.570991,82.944476 C 73.570991,82.944476 75.610722,83.225819 77.087769,85.757899 C 78.564815,88.289979 78.353809,89.69669 78.353809,89.69669 L 63.513006,89.69669 L 57.886162,82.663134 z "
       id="path3428" />
    <path
       style="fill:#000000;fill-rule:evenodd;stroke:#000000;stroke-width:1px;stroke-linecap:butt;stroke-linejoin:miter;stroke-opacity:1"
       d="M 57.112471,82.803805 L 53.595693,77.317632 C 53.595693,77.317632 58.097169,79.287027 58.659853,79.990383 C 59.222537,80.693738 66.818777,80.975081 66.818777,80.975081 C 66.818777,80.975081 63.724013,84.351187 63.302,85.476556 C 62.879987,86.601925 61.191933,86.179912 61.191933,86.179912 L 57.112471,82.803805 z "
       id="path3430"
       sodipodi:nodetypes="ccscscc" />
    <path
       sodipodi:open="true"
       sodipodi:end="6.2826132"
       sodipodi:start="0"
       d="M 94.952999,71.901794 A 4.6421466,4.6421466 0 1 1 94.952998,71.899139"
       sodipodi:ry="4.6421466"
       sodipodi:rx="4.6421466"
       sodipodi:cy="71.901794"
       sodipodi:cx="90.310852"
       id="path3432"
       style="fill:#ffffff;fill-opacity:1;stroke:#000000;stroke-width:1;stroke-miterlimit:4;stroke-dasharray:none;stroke-dashoffset:0;stroke-opacity:1"
       sodipodi:type="arc"
       transform="translate(-31.01798,12.730736)" />
    <path
       style="fill:#000000;fill-rule:evenodd;stroke:#000000;stroke-width:1px;stroke-linecap:butt;stroke-linejoin:miter;stroke-opacity:1"
       d="M 127.52073,60.951011 C 127.47457,61.340054 127.62193,62.520645 126.55198,64.138511 C 124.97046,66.52992 125.62162,67.378985 121.83058,70.326011 C 118.80939,72.674578 119.23948,72.857257 119.23948,72.857261 C 119.23948,72.857261 119.66048,73.138325 122.33323,73.701011 C 125.00598,74.263695 124.86449,75.951007 124.86448,75.951011 L 126.52073,74.232261 L 126.39573,74.919761 L 129.11448,74.701011 C 129.11447,74.701009 129.91048,74.263695 132.58323,73.701011 C 135.25598,73.138325 135.67698,72.857261 135.67698,72.857261 C 135.67698,72.857257 135.71659,73.30574 132.98641,70.624419 C 130.28953,67.975802 129.24971,66.430451 128.36448,64.138511 L 127.52073,60.951011 z "
       id="path3434"
       sodipodi:nodetypes="csscsccccscscc" />
    <path
       transform="translate(37.083903,-0.4923484)"
       sodipodi:type="arc"
       style="fill:#ffffff;fill-opacity:1;stroke:#000000;stroke-width:1;stroke-miterlimit:4;stroke-dasharray:none;stroke-dashoffset:0;stroke-opacity:1"
       id="path3436"
       sodipodi:cx="90.310852"
       sodipodi:cy="71.901794"
       sodipodi:rx="4.6421466"
       sodipodi:ry="4.6421466"
       d="M 94.952999,71.901794 A 4.6421466,4.6421466 0 1 1 94.952998,71.899139"
       sodipodi:start="0"
       sodipodi:end="6.2826132"
       sodipodi:open="true" />
    <path
       style="fill:#ffff00;fill-opacity:1;fill-rule:evenodd;stroke:#000000;stroke-width:1px;stroke-linecap:butt;stroke-linejoin:miter;stroke-opacity:1"
       d="M 126.84375,76 C 126.25662,76.497557 125.23767,77.35727 123.375,78.875 C 119.57688,81.969765 109.15735,84.781158 105.78125,85.0625 C 102.40514,85.343842 93.53125,83.093746 93.53125,83.09375 C 93.53125,83.09375 84.688976,88.280885 80.1875,89.40625 C 75.686024,90.531618 68.235255,90.390951 65.5625,89.40625 C 62.889749,88.421552 62.188052,87.718383 60.5,88.84375 L 60.78125,89.5625 C 60.78125,89.5625 60.781158,89.984143 61.0625,90.6875 C 61.343842,91.390855 72.309826,95.172563 80.46875,93.0625 C 88.627675,90.952434 94.531253,86.749997 94.53125,86.75 C 94.53125,86.75 97.638828,88.281343 103.125,88 C 108.61118,87.718658 110.29388,88.157449 119.4375,84.5 C 126.97659,81.484363 127.23079,79.442377 127.09375,78.8125 L 127.65625,78.8125 C 127.51921,79.442377 127.77341,81.484363 135.3125,84.5 C 144.45612,88.157449 146.17007,87.718658 151.65625,88 C 157.14242,88.281343 160.21875,86.75 160.21875,86.75 C 160.21874,86.749997 166.12233,90.952434 174.28125,93.0625 C 182.44018,95.172563 193.4374,91.390855 193.71875,90.6875 C 194.00009,89.984143 194,89.5625 194,89.5625 L 194.28125,88.84375 C 192.5932,87.718383 191.86025,88.421552 189.1875,89.40625 C 186.51475,90.390951 179.06398,90.531618 174.5625,89.40625 C 170.06102,88.280885 161.21875,83.09375 161.21875,83.09375 C 161.21875,83.093746 152.34486,85.343842 148.96875,85.0625 C 145.59265,84.781158 135.17312,81.969765 131.375,78.875 C 129.51233,77.35727 128.49338,76.497557 127.90625,76 L 126.84375,76 z "
       id="path3438"
       sodipodi:nodetypes="csscssccsscssccsscssccsscsscc" />
    <g
       id="g3440"
       transform="matrix(-1,0,0,1,254.76182,0)">
      <path
         sodipodi:open="true"
         sodipodi:end="6.2826132"
         sodipodi:start="0"
         d="M 94.952999,71.901794 A 4.6421466,4.6421466 0 1 1 94.952998,71.899139"
         sodipodi:ry="4.6421466"
         sodipodi:rx="4.6421466"
         sodipodi:cy="71.901794"
         sodipodi:cx="90.310852"
         id="path3442"
         style="opacity:1;fill:#ffffff;fill-opacity:1;stroke:#000000;stroke-width:1;stroke-miterlimit:4;stroke-dasharray:none;stroke-dashoffset:0;stroke-opacity:1"
         sodipodi:type="arc"
         transform="translate(-2.568283,8.7919444)" />
      <path
         sodipodi:type="arc"
         style="opacity:1;fill:#ffffff;fill-opacity:1;stroke:#000000;stroke-width:1;stroke-miterlimit:4;stroke-dasharray:none;stroke-dashoffset:0;stroke-opacity:1"
         id="path3444"
         sodipodi:cx="90.310852"
         sodipodi:cy="71.901794"
         sodipodi:rx="4.6421466"
         sodipodi:ry="4.6421466"
         d="M 94.952999,71.901794 A 4.6421466,4.6421466 0 1 1 94.952998,71.899139"
         sodipodi:start="0"
         sodipodi:end="6.2826132"
         sodipodi:open="true" />
      <path
         transform="translate(6.4829387,6.96322)"
         sodipodi:type="arc"
         style="opacity:1;fill:#ffffff;fill-opacity:1;stroke:#000000;stroke-width:1;stroke-miterlimit:4;stroke-dasharray:none;stroke-dashoffset:0;stroke-opacity:1"
         id="path3446"
         sodipodi:cx="90.310852"
         sodipodi:cy="71.901794"
         sodipodi:rx="4.6421466"
         sodipodi:ry="4.6421466"
         d="M 94.952999,71.901794 A 4.6421466,4.6421466 0 1 1 94.952998,71.899139"
         sodipodi:start="0"
         sodipodi:end="6.2826132"
         sodipodi:open="true" />
    </g>
  </g>
  <g
     transform="matrix(0.4814011,0,0,0.4814011,-23.856477,98.567322)"
     id="g3448">
    <path
       sodipodi:nodetypes="cscscscsscscscscscsccscscscscscsscscccsc"
       id="path3450"
       d="M 127.71875,54 C 127.71875,54 127.70507,54.016331 126.3125,55.90625 C 124.91993,57.796171 124.4375,61.071287 124.4375,61.071286 C 124.4375,61.071286 124.52901,60.369695 122.9375,59.375 C 121.34599,58.380305 118.28125,59.96875 118.28125,59.96875 C 118.28125,59.96875 119.75837,60.967919 120.15625,63.15625 C 120.55413,65.344579 122.15625,67.343747 122.15625,67.34375 C 122.15625,67.34375 122.23326,67.730601 121.4375,66.4375 C 120.64175,65.144397 119.67117,64.966101 117.78125,64.46875 C 115.89133,63.971403 113.90625,62.96875 113.90625,62.96875 C 113.90625,62.96875 113.90053,62.965267 114,64.65625 C 114.09947,66.347231 115,69.218753 115,69.21875 C 115,69.21875 115.00042,69.218753 113.90625,69.21875 C 112.81209,69.21875 109.53125,71.812498 109.53125,71.8125 C 109.53125,71.8125 109.5194,71.826177 110.8125,73.21875 C 112.1056,74.611323 115.59375,75.500002 115.59375,75.5 C 115.59375,75.5 115.577,75.511027 114.78125,76.40625 C 113.98549,77.301475 113.6875,81.468752 113.6875,81.46875 C 113.6875,81.46875 115.18137,80.585374 116.375,80.1875 C 117.56863,79.789622 120.65725,80.080901 125.53125,76.5 L 126,74.9375 C 134.21284,81.26845 138.46574,80.312815 139.0625,80.1875 C 140.29384,79.928926 141.75,81.46875 141.75,81.46875 C 141.75001,81.468752 141.45201,77.301475 140.65625,76.40625 C 139.8605,75.511027 139.84375,75.5 139.84375,75.5 C 139.84374,75.500002 143.3319,74.611323 144.625,73.21875 C 145.9181,71.826177 145.90625,71.8125 145.90625,71.8125 C 145.90625,71.812498 142.62541,69.21875 141.53125,69.21875 C 140.43708,69.218753 140.4375,69.21875 140.4375,69.21875 C 140.4375,69.218753 141.33803,66.347231 141.4375,64.65625 C 141.53697,62.965267 141.53125,62.96875 141.53125,62.96875 C 141.53125,62.96875 139.54617,63.971403 137.65625,64.46875 C 135.76633,64.966101 134.79575,65.144397 134,66.4375 C 133.20425,67.730601 133.28125,67.34375 133.28125,67.34375 C 133.28126,67.343747 134.88337,65.344579 135.28125,63.15625 C 135.67913,60.967919 137.15625,59.96875 137.15625,59.96875 C 137.15625,59.96875 134.09151,58.380305 132.5,59.375 L 130.41769,60.764092 C 130.41769,60.764092 130.21875,61.071703 130.21875,59.28125 C 130.21875,57.490799 127.71875,54 127.71875,54 z "
       style="fill:#ffff00;fill-opacity:1;fill-rule:evenodd;stroke:#000000;stroke-width:1px;stroke-linecap:butt;stroke-linejoin:miter;stroke-opacity:1" />
    <path
       style="fill:#ffff00;fill-opacity:1;fill-rule:evenodd;stroke:#000000;stroke-width:1px;stroke-linecap:butt;stroke-linejoin:miter;stroke-opacity:1"
       d="M 196.19988,82.663134 L 206.67988,70.495083 C 206.67988,70.495083 201.40471,68.80703 199.78699,70.284076 C 198.16927,71.761123 198.30995,71.409445 198.30995,71.409445 C 198.30995,71.409445 197.04391,68.385016 193.24579,68.314681 C 189.44767,68.244345 190.64337,68.947701 190.64337,68.947701 C 190.64337,68.947701 192.47209,69.018036 192.54243,71.901794 C 192.61277,74.785552 192.19075,76.825283 192.19075,76.825283 C 192.19075,76.825283 191.6984,74.644881 189.30699,73.308505 C 186.91558,71.97213 185.50887,69.791728 185.50887,69.791728 C 185.50887,69.791728 182.62512,74.222868 182.90646,75.348236 C 183.1878,76.473605 183.1878,76.262599 183.1878,76.262599 C 183.1878,76.262599 180.44471,75.277901 178.33465,75.77025 C 176.22458,76.262599 176.22458,76.332934 176.22458,76.332934 C 176.22458,76.332934 175.59156,79.287028 177.77196,80.83441 C 179.95236,82.381792 180.51505,82.944476 180.51505,82.944476 C 180.51505,82.944476 178.47532,83.225819 176.99827,85.757899 C 175.52123,88.289979 175.73223,89.69669 175.73223,89.69669 L 190.57303,89.69669 L 196.19988,82.663134 z "
       id="path3452" />
    <path
       style="fill:#000000;fill-rule:evenodd;stroke:#000000;stroke-width:1px;stroke-linecap:butt;stroke-linejoin:miter;stroke-opacity:1"
       d="M 195.95485,82.803805 L 199.47163,77.317632 C 199.47163,77.317632 194.97016,79.287027 194.40747,79.990383 C 193.84479,80.693738 186.24855,80.975081 186.24855,80.975081 C 186.24855,80.975081 189.34331,84.351187 189.76532,85.476556 C 190.18734,86.601925 191.87539,86.179912 191.87539,86.179912 L 195.95485,82.803805 z "
       id="path3454"
       sodipodi:nodetypes="ccscscc" />
    <path
       sodipodi:open="true"
       sodipodi:end="6.2826132"
       sodipodi:start="0"
       d="M 94.952999,71.901794 A 4.6421466,4.6421466 0 1 1 94.952998,71.899139"
       sodipodi:ry="4.6421466"
       sodipodi:rx="4.6421466"
       sodipodi:cy="71.901794"
       sodipodi:cx="90.310852"
       id="path3456"
       style="fill:#ffffff;fill-opacity:1;stroke:#000000;stroke-width:1;stroke-miterlimit:4;stroke-dasharray:none;stroke-dashoffset:0;stroke-opacity:1"
       sodipodi:type="arc"
       transform="matrix(-1,0,0,1,285.10402,12.730736)" />
    <path
       id="path3458"
       d="M 68.928844,101.79441 L 74.837031,115.72085 L 120.55514,109.1093 L 171.75943,113.61078 L 179.49634,116.14286 L 185.96721,101.51306 L 156.56695,90.96273 L 120.2738,89.415348 L 83.277297,94.620179 L 68.928844,101.79441 z "
       style="fill:#ffff00;fill-opacity:1;fill-rule:evenodd;stroke:#000000;stroke-width:1px;stroke-linecap:butt;stroke-linejoin:miter;stroke-opacity:1" />
    <path
       sodipodi:type="arc"
       style="opacity:1;fill:#ffff00;fill-opacity:1;stroke:#000000;stroke-width:0.73537296;stroke-miterlimit:4;stroke-dasharray:none;stroke-dashoffset:0;stroke-opacity:1"
       id="path3460"
       sodipodi:cx="127.71883"
       sodipodi:cy="116.77719"
       sodipodi:rx="43.766579"
       sodipodi:ry="3.9787798"
       d="M 171.4854,116.77719 A 43.766579,3.9787798 0 1 1 171.4854,116.77491"
       sodipodi:start="0"
       sodipodi:end="6.2826132"
       sodipodi:open="true"
       transform="matrix(1.1231617,0,0,1.6464268,-15.531124,-73.697451)" />
    <path
       transform="translate(0.198939,1.7904509)"
       sodipodi:open="true"
       sodipodi:end="6.2826132"
       sodipodi:start="0"
       d="M 171.4854,116.77719 A 43.766579,3.9787798 0 1 1 171.4854,116.77491"
       sodipodi:ry="3.9787798"
       sodipodi:rx="43.766579"
       sodipodi:cy="116.77719"
       sodipodi:cx="127.71883"
       id="path3462"
       style="opacity:1;fill:#ff0000;fill-opacity:1;stroke:#000000;stroke-width:1;stroke-miterlimit:4;stroke-dasharray:none;stroke-dashoffset:0;stroke-opacity:1"
       sodipodi:type="arc" />
    <path
       sodipodi:nodetypes="csssssssc"
       id="path3464"
       d="M 79.197835,119.30796 C 74.69636,118.74528 73.008306,117.4089 73.289649,115.86152 C 73.570991,114.31413 87.494817,105.64827 126.32266,105.31118 C 156.00238,105.05229 180.19969,112.62608 180.90305,114.59548 C 181.6064,116.56487 182.30976,118.53427 179.91835,119.09695 C 177.52694,119.65964 177.38627,118.18259 173.58815,116.70554 C 166.90689,114.10727 142.07782,112.20407 127.02601,112.20407 C 111.9742,112.20407 87.075417,114.52514 82.644277,116.98689 C 78.510632,119.28336 79.197835,119.30796 79.197835,119.30796 z "
       style="fill:#ffff00;fill-opacity:1;fill-rule:evenodd;stroke:#000000;stroke-width:1px;stroke-linecap:butt;stroke-linejoin:miter;stroke-opacity:1" />
    <path
       id="path3466"
       d="M 120.96875,87 C 113.84137,87.051515 110.9056,87.395976 110.40625,87.875 C 110.39905,87.881909 110.41243,87.899286 110.40625,87.90625 C 83.884156,90.307773 69.257179,96.941275 67.375,98 C 65.124262,99.26604 65.280604,101.79646 67.25,103.0625 C 69.219395,104.32854 71.746218,101.78264 83.28125,97.5625 C 94.547168,93.440823 117.24913,91.646137 127.21875,91.5625 C 137.18837,91.646137 159.89033,93.440823 171.15625,97.5625 C 182.69128,101.78264 185.24935,104.32854 187.21875,103.0625 C 189.18813,101.79646 189.31323,99.26604 187.0625,98 C 185.18104,96.941684 170.56512,90.310137 144.0625,87.90625 C 144.05135,87.905239 144.0424,87.87601 144.03125,87.875 C 143.40706,87.276221 138.96183,86.89937 127.3125,87.03125 C 127.24965,87.030487 127.18795,87.031963 127.125,87.03125 C 124.79513,87.004874 122.7506,86.987121 120.96875,87 z "
       style="fill:#ffff00;fill-opacity:1;fill-rule:evenodd;stroke:#000000;stroke-width:1px;stroke-linecap:butt;stroke-linejoin:miter;stroke-opacity:1" />
    <path
       sodipodi:nodetypes="csscz"
       id="path3468"
       d="M 86.372062,103.62312 C 86.931926,101.61376 90.734909,97.570185 96.781724,96.448903 C 102.83125,95.327119 110.98951,95.182863 111.69286,98.136956 C 112.39622,101.09105 106.6287,104.7485 98.891791,106.01454 C 89.259355,107.33279 85.812199,105.63248 86.372062,103.62312 z "
       style="fill:#ffff00;fill-opacity:1;fill-rule:evenodd;stroke:#000000;stroke-width:1px;stroke-linecap:butt;stroke-linejoin:miter;stroke-opacity:1" />
    <path
       style="fill:#00ff59;fill-opacity:1;fill-rule:evenodd;stroke:#000000;stroke-width:1;stroke-linecap:butt;stroke-linejoin:miter;stroke-miterlimit:4;stroke-dasharray:none;stroke-opacity:1"
       d="M 92.300332,102.43873 C 92.59804,101.37025 94.620274,99.220083 97.835665,98.623841 C 101.0525,98.027333 105.39065,97.950625 105.76465,99.521463 C 106.13867,101.0923 103.07179,103.03715 98.957692,103.71036 C 93.835649,104.41134 92.002626,103.5072 92.300332,102.43873 z "
       id="path3470"
       sodipodi:nodetypes="csscz" />
    <path
       style="fill:#ffff00;fill-opacity:1;fill-rule:evenodd;stroke:#000000;stroke-width:1px;stroke-linecap:butt;stroke-linejoin:miter;stroke-opacity:1"
       d="M 168.6648,103.62312 C 168.10493,101.61376 164.30195,97.570185 158.25514,96.448903 C 152.20561,95.327119 144.04735,95.182863 143.344,98.136956 C 142.64064,101.09105 148.40816,104.7485 156.14507,106.01454 C 165.7775,107.33279 169.22466,105.63248 168.6648,103.62312 z "
       id="path3472"
       sodipodi:nodetypes="csscz" />
    <path
       sodipodi:nodetypes="csscz"
       id="path3474"
       d="M 162.73653,102.43873 C 162.43882,101.37025 160.41659,99.220083 157.20119,98.623841 C 153.98436,98.027333 149.64621,97.950625 149.27221,99.521463 C 148.89819,101.0923 151.96507,103.03715 156.07917,103.71036 C 161.20121,104.41134 163.03423,103.5072 162.73653,102.43873 z "
       style="fill:#00ff59;fill-opacity:1;fill-rule:evenodd;stroke:#000000;stroke-width:1;stroke-linecap:butt;stroke-linejoin:miter;stroke-miterlimit:4;stroke-dasharray:none;stroke-opacity:1" />
    <path
       sodipodi:nodetypes="ccccccccc"
       id="path3476"
       d="M 119.99246,96.589574 L 127.5887,92.932125 L 134.76292,96.870916 C 136.70822,95.207781 139.62052,96.229933 139.40507,99.684339 C 138.42721,102.48853 136.14108,102.3698 133.77823,101.51306 L 127.72937,104.18581 L 121.11783,100.80971 C 119.01149,102.65063 115.50958,102.55458 114.78763,99.543668 C 114.64262,96.093892 117.52956,95.111837 119.99246,96.589574 z "
       style="fill:#ffff00;fill-opacity:1;fill-rule:evenodd;stroke:#000000;stroke-width:1px;stroke-linecap:butt;stroke-linejoin:miter;stroke-opacity:1" />
    <path
       id="path3478"
       d="M 122.10252,98.418299 L 127.72937,95.182863 L 133.63755,98.699641 L 127.72937,102.21642 L 122.10252,98.418299 z "
       style="fill:#ff0000;fill-opacity:1;fill-rule:evenodd;stroke:#000000;stroke-width:1px;stroke-linecap:butt;stroke-linejoin:miter;stroke-opacity:1" />
    <g
       id="g3480">
      <path
         style="fill:#ffff00;fill-opacity:1;fill-rule:evenodd;stroke:#000000;stroke-width:1px;stroke-linecap:butt;stroke-linejoin:miter;stroke-opacity:1"
         d="M 70.219023,104.01798 L 69.190828,105.11727 L 73.080634,114.26687 L 74.537918,114.41463 L 79.153807,109.68852 C 81.665758,109.60389 83.834051,108.84584 83.697513,105.87919 C 82.611291,102.59294 79.529442,102.72533 78.343251,104.99319 L 70.219023,104.01798 z "
         id="path3482" />
      <path
         style="fill:#ff0000;fill-opacity:1;fill-rule:evenodd;stroke:#000000;stroke-width:1px;stroke-linecap:butt;stroke-linejoin:miter;stroke-opacity:1"
         d="M 69.778448,106.91081 L 77.785671,107.33123 L 72.455571,112.26337 L 64.995506,112.15341 L 69.778448,106.91081 z "
         id="path3484" />
    </g>
    <g
       transform="matrix(-1,0,0,1,255.32784,0)"
       id="g3486">
      <path
         id="path3488"
         d="M 70.219023,104.01798 L 69.190828,105.11727 L 73.080634,114.26687 L 74.537918,114.41463 L 79.153807,109.68852 C 81.665758,109.60389 83.834051,108.84584 83.697513,105.87919 C 82.611291,102.59294 79.529442,102.72533 78.343251,104.99319 L 70.219023,104.01798 z "
         style="fill:#ffff00;fill-opacity:1;fill-rule:evenodd;stroke:#000000;stroke-width:1px;stroke-linecap:butt;stroke-linejoin:miter;stroke-opacity:1" />
      <path
         id="path3490"
         d="M 69.778448,106.91081 L 77.785671,107.33123 L 72.455571,112.26337 L 64.995506,112.15341 L 69.778448,106.91081 z "
         style="fill:#ff0000;fill-opacity:1;fill-rule:evenodd;stroke:#000000;stroke-width:1px;stroke-linecap:butt;stroke-linejoin:miter;stroke-opacity:1" />
    </g>
    <g
       id="g3492">
      <path
         sodipodi:open="true"
         sodipodi:end="6.2826132"
         sodipodi:start="0"
         d="M 94.952999,71.901794 A 4.6421466,4.6421466 0 1 1 94.952998,71.899139"
         sodipodi:ry="4.6421466"
         sodipodi:rx="4.6421466"
         sodipodi:cy="71.901794"
         sodipodi:cx="90.310852"
         id="path3494"
         style="opacity:1;fill:#ffffff;fill-opacity:1;stroke:#000000;stroke-width:1;stroke-miterlimit:4;stroke-dasharray:none;stroke-dashoffset:0;stroke-opacity:1"
         sodipodi:type="arc"
         transform="translate(-2.568283,8.7919444)" />
      <path
         sodipodi:type="arc"
         style="opacity:1;fill:#ffffff;fill-opacity:1;stroke:#000000;stroke-width:1;stroke-miterlimit:4;stroke-dasharray:none;stroke-dashoffset:0;stroke-opacity:1"
         id="path3496"
         sodipodi:cx="90.310852"
         sodipodi:cy="71.901794"
         sodipodi:rx="4.6421466"
         sodipodi:ry="4.6421466"
         d="M 94.952999,71.901794 A 4.6421466,4.6421466 0 1 1 94.952998,71.899139"
         sodipodi:start="0"
         sodipodi:end="6.2826132"
         sodipodi:open="true" />
      <path
         transform="translate(6.4829387,6.96322)"
         sodipodi:type="arc"
         style="opacity:1;fill:#ffffff;fill-opacity:1;stroke:#000000;stroke-width:1;stroke-miterlimit:4;stroke-dasharray:none;stroke-dashoffset:0;stroke-opacity:1"
         id="path3498"
         sodipodi:cx="90.310852"
         sodipodi:cy="71.901794"
         sodipodi:rx="4.6421466"
         sodipodi:ry="4.6421466"
         d="M 94.952999,71.901794 A 4.6421466,4.6421466 0 1 1 94.952998,71.899139"
         sodipodi:start="0"
         sodipodi:end="6.2826132"
         sodipodi:open="true" />
    </g>
    <path
       id="path3500"
       d="M 57.886162,82.663134 L 47.406164,70.495083 C 47.406164,70.495083 52.681331,68.80703 54.299049,70.284076 C 55.916766,71.761123 55.776095,71.409445 55.776095,71.409445 C 55.776095,71.409445 57.042135,68.385016 60.840255,68.314681 C 64.638375,68.244345 63.442671,68.947701 63.442671,68.947701 C 63.442671,68.947701 61.613946,69.018036 61.543611,71.901794 C 61.473275,74.785552 61.895289,76.825283 61.895289,76.825283 C 61.895289,76.825283 62.387638,74.644881 64.779046,73.308505 C 67.170455,71.97213 68.577166,69.791728 68.577166,69.791728 C 68.577166,69.791728 71.460924,74.222868 71.179582,75.348236 C 70.89824,76.473605 70.89824,76.262599 70.89824,76.262599 C 70.89824,76.262599 73.641326,75.277901 75.751393,75.77025 C 77.86146,76.262599 77.86146,76.332934 77.86146,76.332934 C 77.86146,76.332934 78.49448,79.287028 76.314077,80.83441 C 74.133675,82.381792 73.570991,82.944476 73.570991,82.944476 C 73.570991,82.944476 75.610722,83.225819 77.087769,85.757899 C 78.564815,88.289979 78.353809,89.69669 78.353809,89.69669 L 63.513006,89.69669 L 57.886162,82.663134 z "
       style="fill:#ffff00;fill-opacity:1;fill-rule:evenodd;stroke:#000000;stroke-width:1px;stroke-linecap:butt;stroke-linejoin:miter;stroke-opacity:1" />
    <path
       sodipodi:nodetypes="ccscscc"
       id="path3502"
       d="M 57.112471,82.803805 L 53.595693,77.317632 C 53.595693,77.317632 58.097169,79.287027 58.659853,79.990383 C 59.222537,80.693738 66.818777,80.975081 66.818777,80.975081 C 66.818777,80.975081 63.724013,84.351187 63.302,85.476556 C 62.879987,86.601925 61.191933,86.179912 61.191933,86.179912 L 57.112471,82.803805 z "
       style="fill:#000000;fill-rule:evenodd;stroke:#000000;stroke-width:1px;stroke-linecap:butt;stroke-linejoin:miter;stroke-opacity:1" />
    <path
       transform="translate(-31.01798,12.730736)"
       sodipodi:type="arc"
       style="fill:#ffffff;fill-opacity:1;stroke:#000000;stroke-width:1;stroke-miterlimit:4;stroke-dasharray:none;stroke-dashoffset:0;stroke-opacity:1"
       id="path3504"
       sodipodi:cx="90.310852"
       sodipodi:cy="71.901794"
       sodipodi:rx="4.6421466"
       sodipodi:ry="4.6421466"
       d="M 94.952999,71.901794 A 4.6421466,4.6421466 0 1 1 94.952998,71.899139"
       sodipodi:start="0"
       sodipodi:end="6.2826132"
       sodipodi:open="true" />
    <path
       sodipodi:nodetypes="csscsccccscscc"
       id="path3506"
       d="M 127.52073,60.951011 C 127.47457,61.340054 127.62193,62.520645 126.55198,64.138511 C 124.97046,66.52992 125.62162,67.378985 121.83058,70.326011 C 118.80939,72.674578 119.23948,72.857257 119.23948,72.857261 C 119.23948,72.857261 119.66048,73.138325 122.33323,73.701011 C 125.00598,74.263695 124.86449,75.951007 124.86448,75.951011 L 126.52073,74.232261 L 126.39573,74.919761 L 129.11448,74.701011 C 129.11447,74.701009 129.91048,74.263695 132.58323,73.701011 C 135.25598,73.138325 135.67698,72.857261 135.67698,72.857261 C 135.67698,72.857257 135.71659,73.30574 132.98641,70.624419 C 130.28953,67.975802 129.24971,66.430451 128.36448,64.138511 L 127.52073,60.951011 z "
       style="fill:#000000;fill-rule:evenodd;stroke:#000000;stroke-width:1px;stroke-linecap:butt;stroke-linejoin:miter;stroke-opacity:1" />
    <path
       sodipodi:open="true"
       sodipodi:end="6.2826132"
       sodipodi:start="0"
       d="M 94.952999,71.901794 A 4.6421466,4.6421466 0 1 1 94.952998,71.899139"
       sodipodi:ry="4.6421466"
       sodipodi:rx="4.6421466"
       sodipodi:cy="71.901794"
       sodipodi:cx="90.310852"
       id="path3508"
       style="fill:#ffffff;fill-opacity:1;stroke:#000000;stroke-width:1;stroke-miterlimit:4;stroke-dasharray:none;stroke-dashoffset:0;stroke-opacity:1"
       sodipodi:type="arc"
       transform="translate(37.083903,-0.4923484)" />
    <path
       sodipodi:nodetypes="csscssccsscssccsscssccsscsscc"
       id="path3510"
       d="M 126.84375,76 C 126.25662,76.497557 125.23767,77.35727 123.375,78.875 C 119.57688,81.969765 109.15735,84.781158 105.78125,85.0625 C 102.40514,85.343842 93.53125,83.093746 93.53125,83.09375 C 93.53125,83.09375 84.688976,88.280885 80.1875,89.40625 C 75.686024,90.531618 68.235255,90.390951 65.5625,89.40625 C 62.889749,88.421552 62.188052,87.718383 60.5,88.84375 L 60.78125,89.5625 C 60.78125,89.5625 60.781158,89.984143 61.0625,90.6875 C 61.343842,91.390855 72.309826,95.172563 80.46875,93.0625 C 88.627675,90.952434 94.531253,86.749997 94.53125,86.75 C 94.53125,86.75 97.638828,88.281343 103.125,88 C 108.61118,87.718658 110.29388,88.157449 119.4375,84.5 C 126.97659,81.484363 127.23079,79.442377 127.09375,78.8125 L 127.65625,78.8125 C 127.51921,79.442377 127.77341,81.484363 135.3125,84.5 C 144.45612,88.157449 146.17007,87.718658 151.65625,88 C 157.14242,88.281343 160.21875,86.75 160.21875,86.75 C 160.21874,86.749997 166.12233,90.952434 174.28125,93.0625 C 182.44018,95.172563 193.4374,91.390855 193.71875,90.6875 C 194.00009,89.984143 194,89.5625 194,89.5625 L 194.28125,88.84375 C 192.5932,87.718383 191.86025,88.421552 189.1875,89.40625 C 186.51475,90.390951 179.06398,90.531618 174.5625,89.40625 C 170.06102,88.280885 161.21875,83.09375 161.21875,83.09375 C 161.21875,83.093746 152.34486,85.343842 148.96875,85.0625 C 145.59265,84.781158 135.17312,81.969765 131.375,78.875 C 129.51233,77.35727 128.49338,76.497557 127.90625,76 L 126.84375,76 z "
       style="fill:#ffff00;fill-opacity:1;fill-rule:evenodd;stroke:#000000;stroke-width:1px;stroke-linecap:butt;stroke-linejoin:miter;stroke-opacity:1" />
    <g
       transform="matrix(-1,0,0,1,254.76182,0)"
       id="g3512">
      <path
         transform="translate(-2.568283,8.7919444)"
         sodipodi:type="arc"
         style="opacity:1;fill:#ffffff;fill-opacity:1;stroke:#000000;stroke-width:1;stroke-miterlimit:4;stroke-dasharray:none;stroke-dashoffset:0;stroke-opacity:1"
         id="path3514"
         sodipodi:cx="90.310852"
         sodipodi:cy="71.901794"
         sodipodi:rx="4.6421466"
         sodipodi:ry="4.6421466"
         d="M 94.952999,71.901794 A 4.6421466,4.6421466 0 1 1 94.952998,71.899139"
         sodipodi:start="0"
         sodipodi:end="6.2826132"
         sodipodi:open="true" />
      <path
         sodipodi:open="true"
         sodipodi:end="6.2826132"
         sodipodi:start="0"
         d="M 94.952999,71.901794 A 4.6421466,4.6421466 0 1 1 94.952998,71.899139"
         sodipodi:ry="4.6421466"
         sodipodi:rx="4.6421466"
         sodipodi:cy="71.901794"
         sodipodi:cx="90.310852"
         id="path3516"
         style="opacity:1;fill:#ffffff;fill-opacity:1;stroke:#000000;stroke-width:1;stroke-miterlimit:4;stroke-dasharray:none;stroke-dashoffset:0;stroke-opacity:1"
         sodipodi:type="arc" />
      <path
         sodipodi:open="true"
         sodipodi:end="6.2826132"
         sodipodi:start="0"
         d="M 94.952999,71.901794 A 4.6421466,4.6421466 0 1 1 94.952998,71.899139"
         sodipodi:ry="4.6421466"
         sodipodi:rx="4.6421466"
         sodipodi:cy="71.901794"
         sodipodi:cx="90.310852"
         id="path3518"
         style="opacity:1;fill:#ffffff;fill-opacity:1;stroke:#000000;stroke-width:1;stroke-miterlimit:4;stroke-dasharray:none;stroke-dashoffset:0;stroke-opacity:1"
         sodipodi:type="arc"
         transform="translate(6.4829387,6.96322)" />
    </g>
  </g>
  <path
     style="fill:#000000;fill-rule:evenodd;stroke:#000000;stroke-width:1px;stroke-linecap:butt;stroke-linejoin:miter;stroke-opacity:1"
     d="M 117.03125 4.59375 C 117.03125 4.5937502 114.93759 5.9990778 114.65625 8.8125 C 114.3749 11.625921 114.65561 14.577618 116.625 16.125 C 118.5944 17.672383 119.84375 17.96875 119.84375 17.96875 C 119.84375 17.968749 110.84412 23.155789 109.71875 24.5625 C 108.59338 25.969211 108.3125 25.84375 108.3125 25.84375 C 108.3125 25.84375 104.08167 21.751106 93.25 18.375 C 82.418325 14.998894 78.485067 12.750092 76.375 12.46875 C 74.264931 12.187408 49.796829 28.515764 49.9375 28.09375 C 55.845687 27.812408 60.764657 28.654959 63.71875 32.59375 C 66.672842 36.532539 69.625 39.04646 69.625 40.3125 C 69.624998 41.578541 69.5 42.5625 69.5 42.5625 C 69.499998 42.562499 75.107484 39.608867 80.875 41.15625 C 86.642517 42.703632 93.8125 48.1875 93.8125 48.1875 C 93.812502 48.187501 99.607576 46.374724 105.09375 47.21875 C 110.57992 48.062779 113.6557 49.73396 115.34375 51 C 117.0318 52.266039 119.84375 55.09375 119.84375 55.09375 C 119.84375 55.093748 122.93713 53.672106 124.0625 52.96875 C 125.18787 52.265395 126.1875 51 126.1875 51 L 126.9375 48.90625 L 127.71875 51 C 127.71875 51 128.71837 52.265395 129.84375 52.96875 C 130.96912 53.672106 134.0625 55.093748 134.0625 55.09375 C 134.0625 55.09375 136.87445 52.266039 138.5625 51 C 140.25055 49.73396 143.35757 48.062779 148.84375 47.21875 C 154.32992 46.374724 160.09376 48.187501 160.09375 48.1875 C 160.09375 48.1875 167.26373 42.703632 173.03125 41.15625 C 178.79877 39.608867 184.40625 42.562499 184.40625 42.5625 C 184.40625 42.5625 184.28125 41.578541 184.28125 40.3125 C 184.28125 39.04646 187.2334 36.532539 190.1875 32.59375 C 193.14159 28.654959 198.06057 27.812408 203.96875 28.09375 C 204.10942 28.515764 179.64131 12.187408 177.53125 12.46875 C 175.42118 12.750092 171.48793 14.998894 160.65625 18.375 C 149.82458 21.751106 145.59375 25.84375 145.59375 25.84375 C 145.59375 25.84375 145.31286 25.969211 144.1875 24.5625 C 143.06213 23.155789 134.0625 17.968749 134.0625 17.96875 C 134.0625 17.96875 135.31185 17.672383 137.28125 16.125 C 139.25064 14.577618 139.53135 11.625921 139.25 8.8125 C 138.96866 5.9990778 136.875 4.5937502 136.875 4.59375 C 136.875 4.59375 135.32836 4.9997233 134.625 5.84375 C 133.92164 6.6877767 131.67246 7.5470134 129.84375 7.125 C 128.81474 6.8875364 127.93071 6.6805303 127.09375 6.71875 C 126.99707 6.7067189 126.91068 6.7228127 126.8125 6.71875 C 125.9802 6.6843104 125.08485 6.8890727 124.0625 7.125 C 122.23378 7.5470134 119.98461 6.6877767 119.28125 5.84375 C 118.5779 4.9997233 117.03125 4.59375 117.03125 4.59375 z "
     id="path3556" />
  <rect
     style="opacity:1;fill:#ff0000;fill-opacity:1;stroke:#000000;stroke-width:0.99999997;stroke-miterlimit:4;stroke-dasharray:none;stroke-dashoffset:0;stroke-opacity:1"
     id="rect2189"
     width="126.66727"
     height="129.53793"
     x="174.16313"
     y="-7.560658"
     transform="matrix(0.7071068,0.7071068,-0.7071068,0.7071068,0,0)" />
  <path
     style="fill:#ffff00;fill-rule:evenodd;stroke:#000000;stroke-width:1px;stroke-linecap:butt;stroke-linejoin:miter;stroke-opacity:1;fill-opacity:1"
     d="M 17.302547,156.23413 C 17.302547,156.23413 62.317302,156.23413 64.286697,156.23413 C 66.256093,156.23413 69.350857,158.76621 69.210186,162.56433 C 69.069515,166.36245 67.10012,168.0505 63.442671,168.33184 C 59.785222,168.61318 59.363209,166.22177 57.815826,166.22177 C 56.268444,166.22177 52.329653,165.65909 50.078915,169.73855 C 47.828178,173.81801 47.968849,177.47546 47.968849,182.96164 C 47.968849,188.44781 47.968849,281.0094 47.968849,281.0094 C 47.968849,281.0094 48.10952,283.68215 50.782271,285.79222 C 53.455022,287.90228 55.424418,289.73101 59.50388,288.88698 C 63.583342,288.04296 71.038911,281.43141 74.837031,272.14712 C 78.635151,262.86283 78.916493,258.92404 78.916493,258.92404 L 83.699311,260.33075 L 83.699311,298.87463 L 8.7216089,298.87463 C 8.7216089,298.87463 6.0488578,297.60859 6.0488578,292.96644 C 6.0488578,288.3243 10.409662,286.63624 12.6604,286.49557 C 14.911138,286.3549 17.161875,290.29369 19.975298,289.16832 C 22.78872,288.04296 28.274893,284.66685 28.274893,280.16537 C 28.274893,275.6639 28.274893,180.00754 28.274893,175.78741 C 28.274893,171.56728 23.914089,166.22177 19.271942,166.22177 C 14.629795,166.22177 14.911138,168.19117 11.253689,168.19117 C 7.59624,168.19117 6.3302,165.65909 6.3302,162.705 C 6.1191824,154.80836 11.551837,156.23839 17.302547,156.23413 z "
     id="path3162"
     sodipodi:nodetypes="csssssscsssccccssssssscc" />
  <path
     sodipodi:nodetypes="csssssscsssccccssssssscc"
     id="path3164"
     d="M 196.51754,156.23413 C 196.51754,156.23413 241.5323,156.23413 243.50169,156.23413 C 245.47109,156.23413 248.56585,158.76621 248.42518,162.56433 C 248.28451,166.36245 246.31512,168.0505 242.65767,168.33184 C 239.00022,168.61318 238.57821,166.22177 237.03082,166.22177 C 235.48344,166.22177 231.54465,165.65909 229.29391,169.73855 C 227.04317,173.81801 227.18385,177.47546 227.18385,182.96164 C 227.18385,188.44781 227.18385,281.0094 227.18385,281.0094 C 227.18385,281.0094 227.32452,283.68215 229.99727,285.79222 C 232.67002,287.90228 234.63941,289.73101 238.71888,288.88698 C 242.79834,288.04296 250.25391,281.43141 254.05203,272.14712 C 257.85015,262.86283 258.13149,258.92404 258.13149,258.92404 L 262.91431,260.33075 L 262.91431,298.87463 L 187.93661,298.87463 C 187.93661,298.87463 185.26385,297.60859 185.26385,292.96644 C 185.26385,288.3243 189.62466,286.63624 191.8754,286.49557 C 194.12613,286.3549 196.37687,290.29369 199.19029,289.16832 C 202.00372,288.04296 207.48989,284.66685 207.48989,280.16537 C 207.48989,275.6639 207.48989,180.00754 207.48989,175.78741 C 207.48989,171.56728 203.12909,166.22177 198.48694,166.22177 C 193.84479,166.22177 194.12613,168.19117 190.46869,168.19117 C 186.81124,168.19117 185.5452,165.65909 185.5452,162.705 C 185.33418,154.80836 190.76683,156.23839 196.51754,156.23413 z "
     style="fill:#ffff00;fill-rule:evenodd;stroke:#000000;stroke-width:1px;stroke-linecap:butt;stroke-linejoin:miter;stroke-opacity:1;fill-opacity:1" />
  <path
     style="fill:none;fill-rule:evenodd;stroke:#000000;stroke-width:1px;stroke-linecap:butt;stroke-linejoin:miter;stroke-opacity:1"
     d="M 60.34375,159.9375 C 47.036865,161.06196 33.575165,159.72436 20.18754,160.20617 C 17.344225,161.2557 12.337394,158.34211 10.4375,160.96875 C 9.318797,163.1968 11.188717,165.5939 13.1875,163.40625 C 21.713421,159.31985 31.989317,166.30466 32.28125,175.5 C 32.650237,186.56558 31.824532,197.65314 32.227321,208.74999 C 31.992267,233.70939 33.098174,258.90642 31.5625,283.71875 C 28.764279,290.55758 19.525926,296.51227 12.90625,290.90625 C 9.2018594,289.06294 9.0974394,297.74733 12.90625,294.875 C 35.166667,294.875 57.427083,294.875 79.6875,294.875 C 79.6875,286.83333 79.6875,278.79167 79.6875,270.75 C 75.892626,280.74166 68.53092,292.79321 56.625,292.9375 C 48.038912,292.24093 41.749587,283.00984 43.973878,274.75001 C 44.382327,240.62664 43.120238,206.40901 44.625,172.34375 C 45.823069,164.54867 55.970219,158.67385 62.34375,164.28125 C 67.937612,164.49807 64.776754,158.4703 60.34375,159.9375 z M 10.78125,160.375 C 10.82418,160.31734 10.677607,160.34249 10.78125,160.375 z "
     id="path3166" />
  <path
     id="path3172"
     d="M 239.55874,159.9375 C 226.25186,161.06196 212.79016,159.72436 199.40253,160.20617 C 196.55922,161.2557 191.55239,158.34211 189.65249,160.96875 C 188.53379,163.1968 190.40371,165.5939 192.40249,163.40625 C 200.92842,159.31985 211.20431,166.30466 211.49624,175.5 C 211.86523,186.56558 211.03953,197.65314 211.44232,208.74999 C 211.20726,233.70939 212.31317,258.90642 210.77749,283.71875 C 207.97927,290.55758 198.74092,296.51227 192.12124,290.90625 C 188.41685,289.06294 188.31243,297.74733 192.12124,294.875 C 214.38166,294.875 236.64208,294.875 258.90249,294.875 C 258.90249,286.83333 258.90249,278.79167 258.90249,270.75 C 255.10762,280.74166 247.74591,292.79321 235.83999,292.9375 C 227.25391,292.24093 220.96458,283.00984 223.18887,274.75001 C 223.59732,240.62664 222.33523,206.40901 223.83999,172.34375 C 225.03806,164.54867 235.18521,158.67385 241.55874,164.28125 C 247.15261,164.49807 243.99175,158.4703 239.55874,159.9375 z M 189.99624,160.375 C 190.03917,160.31734 189.8926,160.34249 189.99624,160.375 z "
     style="fill:none;fill-rule:evenodd;stroke:#000000;stroke-width:1px;stroke-linecap:butt;stroke-linejoin:miter;stroke-opacity:1" />
  <g
     id="g3211"
     style="fill:#eae502;fill-opacity:1">
    <path
       id="rect3176"
       d="M 97.34375 148.96875 L 76.8125 169.5 L 76.8125 249.3125 L 97.34375 269.84375 L 97.34375 148.96875 z "
       style="opacity:1;fill:#eae502;fill-opacity:1;stroke:#000000;stroke-width:1;stroke-miterlimit:4;stroke-dasharray:none;stroke-dashoffset:0;stroke-opacity:1" />
    <path
       id="rect3178"
       d="M 128.5 117.8125 L 116.875 129.4375 L 116.875 289.375 L 126.46875 298.96875 L 137.46875 287.96875 L 137.46875 126.78125 L 128.5 117.8125 z "
       style="opacity:1;fill:#eae502;fill-opacity:1;stroke:#000000;stroke-width:1.21011174;stroke-miterlimit:4;stroke-dasharray:none;stroke-dashoffset:0;stroke-opacity:1" />
    <path
       id="rect3180"
       d="M 157.65625 146.96875 L 157.65625 267.78125 L 177.5625 247.875 L 177.5625 166.875 L 157.65625 146.96875 z "
       style="opacity:1;fill:#eae502;fill-opacity:1;stroke:#000000;stroke-width:1.18994701;stroke-miterlimit:4;stroke-dasharray:none;stroke-dashoffset:0;stroke-opacity:1" />
    <path
       id="rect3184"
       d="M 198.3125 187.625 L 198.3125 227.125 L 218.0625 207.375 L 198.3125 187.625 z "
       style="opacity:1;fill:#eae502;fill-opacity:1;stroke:#000000;stroke-width:0.99999994;stroke-miterlimit:4;stroke-dasharray:none;stroke-dashoffset:0;stroke-opacity:1" />
    <path
       id="rect3194"
       d="M 56.6875 189.625 L 36.90625 209.40625 L 56.6875 229.1875 L 56.6875 189.625 z "
       style="opacity:1;fill:#eae502;fill-opacity:1;stroke:#000000;stroke-width:1.18994701;stroke-miterlimit:4;stroke-dasharray:none;stroke-dashoffset:0;stroke-opacity:1" />
  </g>
  <path
     style="fill:none;fill-rule:evenodd;stroke:#ffffff;stroke-width:1px;stroke-linecap:butt;stroke-linejoin:miter;stroke-opacity:1"
     d="M 53.455022,27.238717 C 75.540386,14.437646 72.867635,14.859659 76.806426,15.00033 C 80.745217,15.141001 91.858235,17.251068 98.610448,22.455899 C 105.36266,27.66073 113.9436,41.727841 115.35031,44.681934 C 116.75702,47.636028 117.03836,51.574819 117.03836,51.574819 L 120.13313,54.388241 C 120.13313,54.388241 123.36856,54.669583 122.80588,49.886766 C 122.2432,45.103948 118.44508,32.865561 116.75702,30.755495 C 115.06897,28.645428 111.41152,28.082743 107.47273,30.19281 C 103.53394,32.302877 95.375013,43.415894 94.812328,45.525961 C 94.249644,47.636028 93.264946,47.91737 93.264946,47.91737 C 93.264946,47.91737 91.154879,39.758445 89.748168,30.333481 C 88.341457,20.908517 89.88884,19.642477 89.88884,19.642477 C 89.88884,19.642477 76.806426,26.113348 74.837031,29.770797 C 72.867635,33.428246 71.038911,41.024486 71.038911,41.024486"
     id="path3561"
     sodipodi:nodetypes="csssccsssscscsc" />
  <path
     sodipodi:nodetypes="csssccsssscscsc"
     id="path3563"
     d="M 200.66272,27.238717 C 178.57736,14.437646 181.25011,14.859659 177.31132,15.00033 C 173.37253,15.141001 162.25951,17.251068 155.5073,22.455899 C 148.75509,27.66073 140.17415,41.727841 138.76744,44.681934 C 137.36073,47.636028 137.07939,51.574819 137.07939,51.574819 L 133.98462,54.388241 C 133.98462,54.388241 130.74919,54.669583 131.31187,49.886766 C 131.87455,45.103948 135.67267,32.865561 137.36073,30.755495 C 139.04878,28.645428 142.70623,28.082743 146.64502,30.19281 C 150.58381,32.302877 158.74273,43.415894 159.30542,45.525961 C 159.8681,47.636028 160.8528,47.91737 160.8528,47.91737 C 160.8528,47.91737 162.96287,39.758445 164.36958,30.333481 C 165.77629,20.908517 164.22891,19.642477 164.22891,19.642477 C 164.22891,19.642477 177.31132,26.113348 179.28071,29.770797 C 181.25011,33.428246 183.07883,41.024486 183.07883,41.024486"
     style="fill:none;fill-rule:evenodd;stroke:#ffffff;stroke-width:1px;stroke-linecap:butt;stroke-linejoin:miter;stroke-opacity:1" />
</svg>
